<svg width="1903" height="1903" viewBox="0 0 1903 1903" fill="none" xmlns="http://www.w3.org/2000/svg">
<rect width="1902.23" height="1902.23" rx="940" fill="#9B68D0"/>
<path d="M1387.99 1156.24C1373.91 1170.36 1351.16 1170.36 1337.08 1156.24L1286.16 1105.32C1272.04 1091.24 1272.04 1068.45 1286.16 1054.41L1387.99 952.569C1402.07 938.489 1424.83 938.489 1438.91 952.569L1489.83 1003.49C1503.95 1017.57 1503.95 1040.36 1489.83 1054.41L1387.99 1156.24ZM847.844 616.092C833.764 630.208 811.005 630.208 796.926 616.092L746.007 565.174C731.891 551.094 731.891 528.335 746.007 514.256L847.844 412.419C861.924 398.339 884.682 398.339 898.762 412.419L949.68 463.337C963.796 477.417 963.796 500.176 949.68 514.256L847.844 616.092Z" fill="white"/>
<path d="M379.72 1090.38C451.74 1090.38 775.83 1126.39 775.83 1126.39C775.83 1126.39 811.84 1450.48 811.84 1522.5C811.84 1594.52 739.82 1594.52 703.81 1558.51C667.8 1522.5 559.77 1342.45 559.77 1342.45C559.77 1342.45 379.72 1234.42 343.71 1198.41C307.7 1162.4 307.7 1090.38 379.72 1090.38ZM451.74 515.626C559.77 514.222 1351.99 550.232 1351.99 550.232C1351.99 550.232 1385.26 1342.45 1386.63 1450.48C1388 1558.51 1287.14 1594.59 1247.56 1450.52C1207.99 1306.44 1063.91 838.312 1063.91 838.312C1063.91 838.312 561.391 679.255 451.56 654.589C307.7 622.252 343.674 516.994 451.74 515.626Z" fill="white"/>
<path d="M1279.97 406.209C1351.99 334.189 1532.04 298.179 1568.05 334.189C1604.06 370.199 1568.05 550.249 1496.03 622.269C1424.01 694.289 811.835 1270.45 811.835 1270.45C811.835 1270.45 577.77 1432.49 523.755 1378.48C469.74 1324.46 631.785 1090.4 631.785 1090.4C631.785 1090.4 1207.95 478.229 1279.97 406.209Z" fill="white"/>
<path d="M811.834 1090.41C811.834 1090.41 829.839 1108.41 667.794 1270.46C505.749 1432.5 487.744 1414.5 487.744 1414.5C487.744 1414.5 469.739 1396.49 631.784 1234.45C793.829 1072.4 811.834 1090.41 811.834 1090.41ZM1351.98 442.229C1411.65 442.229 1460.01 490.59 1460.01 550.259H1489C1493.11 538.916 1496.02 527.032 1496.02 514.249C1496.02 454.58 1447.66 406.219 1387.99 406.219C1375.21 406.219 1363.33 409.136 1351.98 413.241V442.229Z" fill="white"/>
</svg>
