<svg width="74" height="74" viewBox="0 0 74 74" fill="none" xmlns="http://www.w3.org/2000/svg">
<path d="M37 0.5C57.1581 0.5 73.5 16.8419 73.5 37C73.5 57.1581 57.1581 73.5 37 73.5C16.8419 73.5 0.5 57.1581 0.5 37C0.5 16.8419 16.8419 0.5 37 0.5ZM22.2246 57.5C25.3197 63.3147 29.659 67.2278 34.5 68.2363V57.5H22.2246ZM39.5 68.2363C44.341 67.2278 48.6805 63.3148 51.7773 57.5H39.5V68.2363ZM57.2725 57.5C56.2386 59.7628 55.0347 61.834 53.6904 63.6904C56.395 61.9982 58.8214 59.9092 60.8906 57.5H57.2725ZM13.1094 57.5C15.1779 59.9085 17.6031 61.9975 20.3066 63.6895C18.9626 61.8337 17.7588 59.7621 16.7266 57.5H13.1094ZM61.4121 39.5C61.2003 44.1238 60.4198 48.5064 59.1621 52.5H64.3906C66.5996 48.6061 67.9894 44.2033 68.3584 39.5H61.4121ZM39.5 52.5H53.9492C55.319 48.6078 56.1833 44.2051 56.4141 39.5H39.5V52.5ZM17.5879 39.5C17.8171 44.2049 18.6828 48.6077 20.0527 52.5H34.5V39.5H17.5879ZM5.63965 39.5C6.01037 44.2034 7.40043 48.6061 9.60938 52.5H14.8379C13.5785 48.5063 12.798 44.1238 12.5879 39.5H5.63965ZM59.1621 21.5C60.4198 25.4938 61.2003 29.8779 61.4121 34.5H68.3584C67.9894 29.7984 66.5996 25.3939 64.3906 21.5H59.1621ZM39.5 34.5H56.4121C56.1829 29.7968 55.3172 25.3923 53.9473 21.5H39.5V34.5ZM20.0527 21.5C18.6828 25.3923 17.8171 29.7968 17.5879 34.5H34.5V21.5H20.0527ZM9.60742 21.5C7.40032 25.3939 6.01039 29.7984 5.63965 34.5H12.5898C12.7999 29.8777 13.5809 25.4937 14.8369 21.5H9.60742ZM53.6875 10.3047C55.0325 12.1624 56.2379 14.2357 57.2725 16.5H60.8906C58.8205 14.0895 56.3934 11.9977 53.6875 10.3047ZM39.5 16.5H51.7754C48.6785 10.6848 44.3408 6.76956 39.5 5.7627V16.5ZM34.5 5.7627C29.6591 6.76957 25.3198 10.6849 22.2246 16.5H34.5V5.7627ZM20.3076 10.3086C17.6036 12.0016 15.1782 14.0912 13.1094 16.5H16.7256C17.7593 14.2375 18.9631 12.1653 20.3076 10.3086Z" fill="#252525" stroke="#252525"/>
</svg>
