<svg width="80" height="65" viewBox="0 0 80 65" fill="none" xmlns="http://www.w3.org/2000/svg">
<path d="M26.4 7.0708L6.6 1.7666C2.9546 0.7898 0 2.9524 0 6.6V50.6C0 54.2432 2.9546 57.9898 6.6 58.9688L26.4 64.273V7.0708ZM52.8 57.2L72.6 62.5042C76.2432 63.4788 79.2 61.3162 79.2 57.673V13.673C79.2 10.0276 76.2432 6.281 72.6 5.3042L52.8 0V57.2Z" fill="#1C1C1C"/>
<path d="M52.8001 57.2L26.4001 64.273V7.073L52.8001 0V57.2Z" fill="#1C1C1C"/>
<path d="M26.4001 11.4697L8.80015 6.75293C6.37135 6.10173 4.40015 7.54493 4.40015 9.97373V49.5737C4.40015 52.0025 6.37135 54.5017 8.80015 55.1507L26.4001 59.8697V11.4697ZM70.4001 9.11133L52.8001 4.39453V52.7945L70.4001 57.5113C72.8289 58.1625 74.8001 56.7215 74.8001 54.2883V14.6883C74.8001 12.2617 72.8289 9.76253 70.4001 9.11133Z" fill="white"/>
<path d="M52.8001 52.7984L26.4001 59.8714V11.4714L52.8001 4.39844V52.7984Z" fill="white"/>
<path d="M26.4001 37.6468C25.8105 37.66 25.0911 37.8756 24.5411 37.9658C23.5819 38.1264 23.8173 39.1032 23.5225 38.9404C23.2255 38.7776 22.4775 38.3574 21.7361 37.4928C20.9947 36.626 22.2861 36.4434 22.6557 36.1244C23.0253 35.8054 21.9605 35.746 21.5887 35.394C21.2169 35.0442 20.5525 35.6228 19.9629 34.7868C19.3689 33.9596 19.7407 33.0488 19.6703 32.1908C19.5955 31.3328 20.6295 31.4406 21.2961 31.456C21.9627 31.4626 22.4797 31.7728 22.4797 32.7804C22.4797 33.7836 23.2937 34.338 23.0715 33.1016C22.8493 31.8674 23.2937 31.6562 23.5885 31.1436C23.8833 30.6376 24.4025 29.9336 25.0669 28.8556C25.5531 28.068 25.9227 28.233 26.4001 28.4948V21.1358C26.2791 21.039 26.1581 20.9378 26.0371 20.8872C25.3705 20.5968 26.2483 22.5438 25.7313 23.327C25.2099 24.1102 24.4157 23.7516 23.5973 23.5338C22.7855 23.316 22.0287 22.3348 22.6227 21.3184C23.2123 20.302 24.3431 20.7288 24.9349 19.8818C25.5267 19.0348 22.8295 18.4034 21.8681 17.8116C20.9045 17.2154 19.7495 16.9118 18.7881 17.4904C17.8267 18.0712 15.7675 17.783 14.9535 17.8996C14.1395 18.0184 13.9943 17.0878 13.8469 16.375C13.6995 15.6666 12.4103 15.6512 11.0815 15.6314C9.74829 15.6094 7.25129 16.2496 7.67809 19.5012C7.82769 20.632 9.00909 19.774 9.23349 19.5804C9.45569 19.3868 10.5645 20.0204 10.7097 20.9818C10.8593 21.9476 10.7867 22.9332 10.4919 23.6922C10.1905 24.4512 11.2311 25.9054 11.8207 27.2386C12.4125 28.5696 13.0813 28.7478 13.3761 28.8292C13.6731 28.9084 15.3737 30.1206 15.3011 31.0204C15.2285 31.9246 16.8543 33.2006 17.5209 33.9684C18.1875 34.7384 18.6077 35.4248 19.4723 35.8296C20.3369 36.2322 21.3467 38.1066 21.7911 38.3926C22.1321 38.6126 22.7107 39.3848 23.0583 39.6686C22.6007 40.201 21.7119 41.3142 21.7119 41.9324C21.7119 42.775 22.6799 44.359 23.0495 44.7924C23.4169 45.2236 24.4795 45.7648 24.7017 46.6624C24.9239 47.5578 24.5477 50.2836 23.8833 50.8578C23.2145 51.4342 22.9725 53.1524 22.9725 53.1524C22.9725 53.1524 23.2079 53.797 23.9955 53.4252C24.6753 53.1084 25.7027 52.18 26.4023 51.663V37.6468H26.4001Z" fill="#1C1C1C"/>
<path d="M26.9897 28.6459C26.7697 28.6811 26.5783 28.6723 26.4001 28.6701V21.3111C26.9589 21.4541 27.5265 22.0085 27.9555 22.9303C28.4703 24.0501 29.2843 23.0755 29.5813 23.7531C29.8761 24.4307 31.5063 25.4207 30.6923 25.3855C29.8761 25.3525 29.0621 25.4031 28.8421 26.3843C28.6177 27.3699 29.2117 28.1311 28.6177 28.2059C28.0237 28.2785 27.8037 28.5183 26.9897 28.6459ZM32.6877 40.8735C31.7285 40.7107 31.8979 40.8229 31.3061 39.5557C30.7165 38.2863 30.3579 37.9211 29.0269 38.1125C27.6959 38.3039 27.7443 38.4117 27.3747 37.7539C27.2163 37.4723 26.8445 37.5735 26.4001 37.8221V51.8361C26.5981 51.5853 26.7741 51.3719 26.9017 51.2487C28.0127 50.1993 29.0929 48.9915 30.1269 47.6275C31.1609 46.2613 30.7869 45.5947 31.3039 44.3693C31.8231 43.1417 32.4941 43.0119 33.3807 41.8503C34.2717 40.6843 33.6491 41.0407 32.6877 40.8735ZM52.8001 24.9455V11.0547C52.7121 11.0635 52.6505 11.0811 52.5581 11.0877C52.0983 11.1119 51.4977 11.3847 50.8443 11.7917C50.7915 11.7807 50.7431 11.7565 50.6903 11.7455C48.7191 11.3605 47.8039 14.3965 46.2045 14.2799C44.6007 14.1633 42.4645 13.5231 41.0741 15.4107C39.6859 17.2961 39.3647 18.7767 41.0741 18.2575C42.7835 17.7383 43.9605 15.1225 44.8141 15.8617C45.6677 16.6009 45.4521 17.4479 43.4237 18.2927C41.3953 19.1397 39.2041 20.0901 38.0293 20.4047C36.8545 20.7193 36.5883 21.5795 37.3869 22.2131C38.1877 22.8467 36.9051 23.2493 35.5697 24.4571C34.2343 25.6605 35.8909 25.5835 37.0129 26.0081C38.1349 26.4327 38.9885 25.2975 39.4703 23.9577C39.9477 22.6201 42.0179 20.6115 42.8803 20.5609C43.7427 20.5103 43.7427 20.9943 43.5799 21.8853C43.5513 22.0415 43.5821 22.1119 43.6041 22.1889C43.2301 23.3769 42.9221 24.4549 42.8011 25.0621C42.7439 25.3591 42.7329 25.8343 42.7417 26.3711C42.5525 26.3799 42.3391 26.4173 42.1961 26.3733C41.2325 26.0895 39.0413 25.8893 38.4539 26.4679C37.8665 27.0509 37.5475 27.5723 36.8523 28.0585C36.1549 28.5403 33.3257 30.7513 33.2729 32.6433C33.2179 34.5331 33.1651 36.6693 34.2871 36.4295C35.4091 36.1897 38.1349 34.6123 38.9885 33.5959C39.8399 32.5773 41.0147 32.4475 41.3909 33.2527C41.7649 34.0645 41.4965 34.6805 41.1269 36.2315C40.7507 37.7891 41.3689 38.3501 41.9651 39.4611C42.5657 40.5699 43.0453 41.1661 43.0453 42.0769C43.0453 42.9833 43.9011 43.6675 45.1793 41.8063C45.5929 41.2123 45.9867 40.4731 46.3585 39.7009C47.2583 38.6691 48.0481 37.6703 48.0261 37.2897C47.9909 36.6715 47.9799 36.3349 47.9733 35.9169L48.1735 35.4329C48.4529 34.7883 48.7037 33.7917 48.9699 32.8919C48.9853 32.8699 48.9985 32.8545 49.0139 32.8391C49.5353 32.0977 49.4209 32.0625 50.2899 31.1759C50.8707 30.5819 50.8487 30.0495 50.7607 29.6843C50.9917 29.2993 51.0555 29.0683 50.6881 29.1673L50.6529 29.1761C50.6485 29.1761 50.6419 29.2179 50.6397 29.2069C50.5891 28.8791 50.1865 29.2135 49.5375 29.5325C48.9127 29.5501 48.2923 29.3873 48.0679 28.7229C47.7753 27.8517 46.7435 26.5317 46.6621 25.7837C46.6687 25.6935 46.6731 25.6143 46.6841 25.5109C46.7149 25.4317 46.7567 25.3657 46.8359 25.3173C46.9195 25.2689 47.0009 25.2513 47.0823 25.2403C47.1725 25.4845 47.2473 25.8541 47.2715 26.2611C47.3287 27.3105 48.1383 26.6923 48.1383 27.3567C48.1383 28.0233 49.3043 28.4391 49.5925 28.5623C49.6739 28.5975 49.7993 28.5029 49.9423 28.3467C50.0105 28.3709 50.0743 28.4193 50.1469 28.4281C50.7893 28.4963 52.1753 26.2633 52.6043 25.8673C52.8287 25.6583 52.8331 25.2755 52.6769 25.0005L52.8001 24.9455Z" fill="#1C1C1C"/>
<path d="M60.7948 34.8218C60.6782 35.7898 61.1996 35.264 62.128 36.3728C63.0586 37.4904 61.8992 37.2396 61.4922 37.068C61.0852 36.892 60.6782 36.7798 60.2184 35.9284C59.7498 35.0682 60.2184 34.3994 60.2184 33.669C60.2184 33.669 60.9136 33.8538 60.7948 34.8218ZM61.5912 32.8396C62.447 33.2048 61.842 31.7792 62.128 30.9894C62.4184 30.2062 62.8232 30.1798 63.349 30.1908C63.8682 30.1952 64.2774 29.7706 64.6272 29.335C64.9726 28.8972 65.6128 28.3362 65.5556 27.7224C65.4984 27.1086 65.3268 26.662 65.0892 25.8678C64.8582 25.0758 65.7844 25.0582 66.1936 24.3036C66.5984 23.549 66.1936 24.3036 67.1198 24.286C68.0482 24.2684 67.6434 24.1584 67.815 23.8064C67.991 23.4566 68.1076 23.087 67.9338 22.3104C67.7622 21.5338 67.1198 22.0904 66.4818 21.921C65.846 21.7516 66.715 20.986 66.7722 20.205C66.8294 19.4218 67.6456 19.842 68.2264 19.93C68.805 20.0158 68.9788 20.9948 69.1526 21.2434C69.3308 21.4898 71.1216 20.4404 71.5902 19.8332C72.0544 19.2282 71.1811 19.193 71.4165 18.9466C71.6497 18.7024 70.026 18.2052 69.3814 17.9148C68.7456 17.6222 67.1198 17.1074 66.4818 16.487C65.846 15.8644 63.4106 15.5498 62.7682 15.7456C62.128 15.9348 61.721 15.431 61.435 14.8524C61.1468 14.276 59.9258 14.199 59.5782 13.825C59.2306 13.451 58.883 14.1044 58.4144 14.177C57.9524 14.254 57.7786 14.2716 57.1956 13.7172C56.617 13.1628 57.3716 12.901 56.562 12.351C55.781 11.8274 54.7734 11.9506 52.8 11.0508V24.9416C53.1454 24.9724 53.4798 25.0208 53.6008 25.0538C53.889 25.1308 54.5864 26.3144 54.5864 26.7786C54.5864 27.2428 54.9341 28.6002 55.2267 29.4076C55.5148 30.2128 56.1506 30.5208 56.7358 31.2072C57.3166 31.8936 57.6026 31.5086 57.6026 31.5086C57.6026 31.5086 57.3716 30.3118 57.3716 29.3856C57.3716 28.4528 58.0668 27.8434 58.0668 27.8434C58.0668 27.8434 59.1669 29.071 59.2285 29.3504C59.2857 29.632 60.1546 30.7936 60.2162 31.2776C60.2734 31.7594 60.7376 32.4788 61.5912 32.8396ZM66.1936 28.29C66.5984 28.466 68.3408 28.6662 67.4124 27.5552C66.4818 26.442 67.1792 26.8974 67.2958 25.9316C67.4124 24.9636 66.715 24.7788 66.715 24.7788C66.715 25.5092 66.2508 26.1824 66.715 27.036C67.177 27.894 65.7844 28.114 66.1936 28.29ZM70.6024 40.1062C70.3142 39.6288 69.6762 39.2592 68.9788 39.092C68.2858 38.9248 68.3408 38.036 67.6456 37.9194C66.9504 37.7984 66.4488 37.0636 66.1364 36.793C65.45 36.2078 65.9032 37.2528 66.1364 38.3308C66.3696 39.4044 67.2386 38.872 68.0482 39.62C68.86 40.368 68.9216 39.6552 69.6762 40.1238C70.4286 40.588 70.7212 41.2678 71.445 41.3954C72.1688 41.5252 70.895 40.5836 70.6024 40.1062ZM63.8088 36.9558C64.3852 37.8402 64.1586 37.0504 64.9176 36.9206C65.6722 36.7908 64.2774 35.6864 63.8132 35.1628C63.349 34.6392 62.8892 34.5006 62.4822 35.2706C62.0202 36.1484 63.2346 36.0714 63.8088 36.9558ZM69.0954 42.6296C68.8028 41.886 67.9558 41.061 67.6104 40.6276C67.2606 40.203 66.715 39.9412 66.2508 40.0138C65.7844 40.082 65.4962 39.8114 65.2652 39.2196C65.032 38.6344 64.6272 38.707 64.2774 38.6828C63.932 38.6564 62.5372 38.9446 61.7232 39.1888C60.9136 39.4374 60.5418 39.7432 60.0116 40.1942C59.1712 40.8982 59.6376 40.4252 60.0116 41.127C60.3812 41.8266 59.6002 43.4722 59.543 44.5216C59.4836 45.571 61.0302 44.5898 61.6088 44.6074C62.1896 44.6338 62.018 44.1916 62.48 43.9166C62.9464 43.6416 63.2478 43.6328 63.7538 44.295C64.2664 44.966 64.9352 45.6392 64.9352 46.2376C64.9352 46.8316 66.77 48.321 67.4674 48.112C68.1626 47.8964 68.5696 47.2144 69.2076 46.715C69.8478 46.22 69.6168 44.9022 69.7884 44.1454C69.9666 43.3886 69.3814 43.3666 69.0954 42.6296Z" fill="#1C1C1C"/>
</svg>
