<svg width="124" height="124" viewBox="0 0 124 124" fill="none" xmlns="http://www.w3.org/2000/svg">
<rect width="123.971" height="123.971" rx="61.9854" fill="#E67B24"/>
<path d="M41.9712 99.4681L43.3348 101.83L36.3377 105.87L34.9741 103.508L41.9712 99.4681ZM43.1212 113.92L36.1028 101.764C35.6283 100.942 35.3948 100.168 35.4021 99.4423C35.4144 98.7136 35.6229 98.0519 36.0276 97.4575C36.4323 96.863 36.9913 96.3597 37.7048 95.9478C38.187 95.6694 38.6487 95.452 39.0899 95.2957C39.536 95.1366 39.8745 95.0297 40.1055 94.9751L40.9081 97.6609C40.7624 97.6925 40.5886 97.7437 40.3866 97.8144C40.1896 97.8822 39.9976 97.9701 39.8106 98.0781C39.3481 98.3451 39.0883 98.6394 39.0312 98.9611C38.9713 99.2778 39.0521 99.628 39.2737 100.012L46.2581 112.109L43.1212 113.92ZM44.8545 92.7647L53.5818 107.881L50.4375 109.696L41.7103 94.58L44.8545 92.7647ZM56.1005 106.427L49.5551 95.0895L52.6993 93.2742L59.2448 104.611L56.1005 106.427ZM50.2908 92.7162C49.8234 92.9861 49.3329 93.0626 48.8193 92.9458C48.3078 92.8212 47.9256 92.5399 47.6728 92.102C47.4228 91.669 47.3731 91.2023 47.5238 90.702C47.6766 90.1939 47.9867 89.8049 48.4542 89.535C48.9216 89.2651 49.4111 89.1925 49.9226 89.317C50.4362 89.4338 50.818 89.7088 51.068 90.1418C51.3208 90.5797 51.3709 91.0527 51.2181 91.5608C51.0674 92.0612 50.7583 92.4463 50.2908 92.7162ZM69.462 104.696C68.4435 105.284 67.4891 105.648 66.5989 105.788C65.7165 105.93 64.9234 105.886 64.2198 105.656C63.5161 105.426 62.9284 105.05 62.4568 104.528L65.139 102.458C65.3582 102.633 65.6206 102.764 65.9262 102.85C66.2317 102.936 66.576 102.947 66.9591 102.883C67.35 102.822 67.7742 102.659 68.2318 102.395C68.9158 102 69.3826 101.507 69.6323 100.917C69.8897 100.329 69.794 99.6458 69.3452 98.8684L68.1477 96.7943L68.0149 96.871C68.0589 97.2655 68.0241 97.6825 67.9105 98.1221C67.7969 98.5616 67.5747 98.995 67.2439 99.4221C66.9132 99.8493 66.4477 100.236 65.8474 100.583C64.9961 101.074 64.1075 101.325 63.1815 101.335C62.2576 101.337 61.3531 101.048 60.4682 100.47C59.5854 99.8844 58.7817 98.964 58.0573 97.7093C57.3158 96.425 56.9056 95.2316 56.8267 94.129C56.7478 93.0264 56.9317 92.0608 57.3783 91.2321C57.8299 90.4006 58.4715 89.7448 59.3031 89.2647C59.9378 88.8982 60.5317 88.6997 61.0848 88.669C61.6351 88.6334 62.1329 88.7003 62.5784 88.8695C63.0259 89.0311 63.4091 89.2232 63.7279 89.4458L63.846 89.3777L62.7466 87.4734L65.8687 85.6708L72.4781 97.1186C73.0349 98.083 73.2646 99.0264 73.1672 99.9486C73.0699 100.871 72.6967 101.736 72.0477 102.544C71.4064 103.353 70.5445 104.071 69.462 104.696ZM65.4801 97.6456C65.987 97.3529 66.3426 96.9803 66.5471 96.5277C66.7537 96.0672 66.8141 95.5469 66.7283 94.9665C66.6446 94.3784 66.4111 93.7523 66.0275 93.088C65.644 92.4237 65.2181 91.902 64.7499 91.5228C64.2788 91.1387 63.788 90.9136 63.2775 90.8475C62.767 90.7814 62.2583 90.8947 61.7515 91.1873C61.2348 91.4856 60.8803 91.8772 60.6879 92.3622C60.4927 92.8423 60.4462 93.381 60.5482 93.9782C60.6502 94.5753 60.8873 95.1962 61.2595 95.8408C61.6373 96.4953 62.055 97.0086 62.5127 97.3807C62.9724 97.7452 63.4522 97.9569 63.9521 98.016C64.4541 98.0673 64.9635 97.9439 65.4801 97.6456ZM74.2765 87.1937L78.0605 93.748L74.9163 95.5633L66.189 80.4472L69.2447 78.683L72.5814 84.4623L72.7142 84.3855C72.5837 83.5686 72.6945 82.8059 73.0465 82.0975C73.3957 81.3842 74.0009 80.7789 74.862 80.2817C75.6493 79.8272 76.4351 79.6031 77.2195 79.6095C78.006 79.6081 78.7463 79.8335 79.4404 80.2857C80.1366 80.7301 80.7379 81.3966 81.2443 82.2851L85.4119 89.5036L82.2677 91.319L78.4239 84.6614C78.0254 83.9598 77.5344 83.5184 76.9507 83.337C76.372 83.1529 75.7628 83.2454 75.1231 83.6147C74.695 83.8619 74.3687 84.1717 74.1441 84.5441C73.9245 84.9137 73.822 85.3271 73.8368 85.7844C73.8536 86.234 74.0001 86.7037 74.2765 87.1937ZM87.3711 73.2564L88.7347 75.6183L81.9074 79.5601L80.5438 77.1982L87.3711 73.2564ZM80.5256 73.5871L83.6698 71.7718L89.7721 82.3412C89.9397 82.6315 90.1147 82.8323 90.297 82.9436C90.4765 83.0499 90.6634 83.0896 90.8578 83.0626C91.0571 83.0329 91.2626 82.9569 91.4742 82.8347C91.6218 82.7495 91.7623 82.652 91.8957 82.5421C92.0263 82.4274 92.1267 82.3399 92.1969 82.2797L94.0423 84.3339C93.9132 84.474 93.7245 84.6585 93.476 84.8872C93.2304 85.1209 92.9076 85.363 92.5077 85.6135C91.767 86.0806 91.0445 86.3632 90.3402 86.4615C89.6408 86.5569 88.993 86.452 88.3968 86.1467C87.8007 85.8413 87.2905 85.3157 86.8665 84.5699L80.5256 73.5871ZM100.576 69.9427L97.8002 71.7818C97.609 71.5642 97.3753 71.4038 97.0993 71.3008C96.8205 71.1928 96.5141 71.1564 96.1802 71.1917C95.8484 71.2193 95.5004 71.3382 95.1363 71.5484C94.6491 71.8297 94.2979 72.1702 94.0826 72.5701C93.8645 72.965 93.8535 73.3322 94.0495 73.6717C94.2057 73.9424 94.4461 74.1087 94.7706 74.1707C95.095 74.2326 95.5532 74.1682 96.145 73.9774L98.4355 73.2061C99.6684 72.7961 100.7 72.6858 101.531 72.8752C102.362 73.0646 103.014 73.5677 103.485 74.3845C103.914 75.1275 104.072 75.9059 103.958 76.7197C103.849 77.5306 103.506 78.3123 102.93 79.0648C102.356 79.8094 101.577 80.4658 100.593 81.034C99.0923 81.9005 97.7162 82.2784 96.4648 82.1677C95.2155 82.0492 94.202 81.4927 93.4245 80.4983L96.4233 78.5504C96.781 78.954 97.2091 79.1727 97.7075 79.2064C98.203 79.2352 98.7313 79.0877 99.2922 78.7638C99.8434 78.4456 100.225 78.0842 100.438 77.6794C100.652 77.2669 100.664 76.8894 100.473 76.5471C100.303 76.2645 100.048 76.1004 99.7062 76.0547C99.3621 76.0041 98.9156 76.0716 98.3667 76.2573L96.1775 76.9996C94.9425 77.4174 93.8967 77.5094 93.0401 77.2757C92.1884 77.0392 91.5183 76.4978 91.0296 75.6514C90.6092 74.9232 90.4438 74.1822 90.5335 73.4284C90.6281 72.6718 90.9522 71.9434 91.5058 71.2432C92.0644 70.5402 92.8283 69.9089 93.7977 69.3492C95.2296 68.5225 96.5311 68.1746 97.7023 68.3054C98.8784 68.4333 99.8364 68.9791 100.576 69.9427Z" fill="white"/>
</svg>
