<svg width="124" height="124" viewBox="0 0 124 124" fill="none" xmlns="http://www.w3.org/2000/svg">
<rect width="123.971" height="123.971" rx="61.9854" fill="#58A75A"/>
<path d="M18.2983 50.704L17.5924 53.3384L9.78819 51.2472L10.4941 48.6129L18.2983 50.704ZM8.8923 61.7364L12.5253 48.1778C12.7709 47.2612 13.153 46.5489 13.6714 46.0408C14.1954 45.5341 14.8107 45.2137 15.5172 45.0795C16.2238 44.9453 16.9749 44.9848 17.7707 45.198C18.3086 45.3421 18.7887 45.5149 19.2112 45.7164C19.6392 45.9193 19.9541 46.0831 20.156 46.2078L18.8245 48.6745C18.699 48.5938 18.5399 48.507 18.3472 48.4142C18.1599 48.3228 17.962 48.2492 17.7534 48.1933C17.2375 48.0551 16.8457 48.0795 16.5779 48.2666C16.3116 48.4482 16.1211 48.753 16.0064 49.1811L12.391 62.6739L8.8923 61.7364ZM17.0526 63.9229L20.4408 51.2781L23.8407 52.1891L23.2496 54.3954L23.3813 54.4307C23.8221 53.7076 24.3678 53.2186 25.0185 52.9635C25.6706 52.703 26.3507 52.6675 27.0587 52.8572C27.2343 52.9043 27.4207 52.966 27.6179 53.0424C27.8151 53.1187 27.9854 53.1967 28.1287 53.2763L27.2949 56.3881C27.1435 56.2946 26.9275 56.1897 26.6469 56.0733C26.3664 55.957 26.1053 55.8664 25.8638 55.8017C25.3479 55.6635 24.8568 55.6525 24.3904 55.7687C23.9309 55.8808 23.5302 56.1029 23.1884 56.4348C22.852 56.7682 22.6147 57.1928 22.4764 57.7087L20.5596 64.8626L17.0526 63.9229ZM26.5383 66.4646L29.9265 53.8198L33.4334 54.7595L30.0453 67.4043L26.5383 66.4646ZM32.1249 52.6618C31.6036 52.5221 31.2026 52.2294 30.922 51.7836C30.6484 51.3339 30.5771 50.8647 30.708 50.3763C30.8374 49.8933 31.1323 49.5282 31.5926 49.281C32.0599 49.0298 32.5543 48.974 33.0757 49.1137C33.597 49.2534 33.9945 49.5481 34.2681 49.9979C34.5487 50.4437 34.6242 50.908 34.4948 51.391C34.364 51.8794 34.0649 52.2493 33.5975 52.5005C33.1372 52.7478 32.6463 52.8015 32.1249 52.6618ZM38.551 69.9481C37.2503 69.5996 36.2013 69.0362 35.404 68.2578C34.6136 67.4755 34.0961 66.5309 33.8515 65.4242C33.6083 64.312 33.6654 63.0891 34.0228 61.7555C34.3713 60.4548 34.9296 59.3809 35.6978 58.5338C36.4659 57.6867 37.3818 57.1115 38.4454 56.8083C39.5145 56.5065 40.6692 56.5218 41.9095 56.8541C42.7437 57.0777 43.4843 57.4202 44.1312 57.8818C44.785 58.3393 45.3096 58.9063 45.7048 59.5828C46.1054 60.2608 46.3486 61.0436 46.4343 61.9312C46.5215 62.8134 46.4209 63.7923 46.1327 64.868L45.8746 65.8312L35.1973 62.9702L35.7796 60.7968L43.1558 62.7733C43.2911 62.2684 43.3012 61.7917 43.186 61.3432C43.0709 60.8947 42.8479 60.5085 42.5171 60.1845C42.1932 59.8566 41.7761 59.6242 41.2657 59.4875C40.7333 59.3448 40.2282 59.3418 39.7504 59.4785C39.2796 59.6112 38.8738 59.8524 38.533 60.2023C38.1937 60.5466 37.9544 60.9678 37.8151 61.4658L37.2614 63.5321C37.0937 64.1577 37.0641 64.7292 37.1726 65.2465C37.2865 65.7652 37.5244 66.2055 37.8864 66.5671C38.2483 66.9288 38.7228 67.1883 39.3101 67.3457C39.6997 67.4501 40.0712 67.4908 40.4244 67.4678C40.7776 67.4448 41.0989 67.3544 41.3882 67.1966C41.6775 67.0389 41.9252 66.817 42.1312 66.531L45.3174 67.6142C44.944 68.3494 44.4241 68.9395 43.7578 69.3845C43.0985 69.8255 42.3248 70.1005 41.4368 70.2096C40.5557 70.3147 39.5937 70.2275 38.551 69.9481ZM52.1753 65.4989L50.2165 72.8092L46.7095 71.8695L50.0977 59.2246L53.44 60.1202L52.8422 62.3512L52.9904 62.3909C53.4674 61.7305 54.0925 61.2744 54.8658 61.0228C55.6406 60.7657 56.4972 60.7629 57.4357 61.0144C58.3138 61.2497 59.0279 61.6469 59.5781 62.2061C60.1282 62.7652 60.4888 63.4501 60.6599 64.2606C60.8324 65.0656 60.787 65.9594 60.5238 66.9417L58.3665 74.993L54.8595 74.0533L56.8492 66.6277C57.062 65.8553 57.0262 65.1987 56.7418 64.6578C56.4588 64.1114 55.966 63.7441 55.2635 63.5558C54.7915 63.4294 54.3472 63.4191 53.9306 63.5251C53.5195 63.6326 53.1601 63.854 52.8527 64.1892C52.5522 64.5205 52.3264 64.957 52.1753 65.4989ZM65.7349 77.1879C64.7744 76.9305 63.9707 76.4505 63.3237 75.7477C62.6837 75.041 62.2654 74.1436 62.0687 73.0556C61.8789 71.9636 61.973 70.7124 62.3509 69.3019C62.7392 67.853 63.2952 66.7108 64.019 65.8754C64.7444 65.0345 65.5579 64.4789 66.4597 64.2088C67.3684 63.9347 68.2865 63.9219 69.2141 64.1704C69.922 64.3601 70.4797 64.6389 70.887 65.0069C71.3012 65.3708 71.606 65.7701 71.8012 66.2048C72.0035 66.6354 72.1359 67.0415 72.1984 67.4229L72.3054 67.4516L74.0039 61.1127L77.5026 62.0502L72.985 78.91L69.5275 77.9835L70.0701 75.9584L69.9219 75.9187C69.6632 76.2258 69.3365 76.5118 68.942 76.7767C68.5545 77.0375 68.0918 77.2165 67.5541 77.3136C67.0218 77.4121 66.4154 77.3702 65.7349 77.1879ZM67.594 74.6949C68.1593 74.8464 68.6779 74.8207 69.1499 74.6177C69.6289 74.4108 70.0477 74.0553 70.4062 73.5514C70.7703 73.049 71.053 72.4218 71.2545 71.6699C71.456 70.918 71.5267 70.237 71.4667 69.6268C71.4066 69.0166 71.2195 68.5077 70.9052 68.0999C70.5909 67.6922 70.1512 67.4126 69.5859 67.2611C69.0096 67.1067 68.482 67.133 68.003 67.3399C67.524 67.5469 67.1088 67.9003 66.7572 68.4002C66.4056 68.9001 66.132 69.515 65.9364 70.245C65.7394 70.9804 65.6666 71.6579 65.7182 72.2776C65.7768 72.8933 65.9582 73.4125 66.2626 73.8352C66.5739 74.254 67.0177 74.5405 67.594 74.6949ZM88.8113 73.4626L85.5478 72.7999C85.5664 72.5107 85.5146 72.2322 85.3923 71.9641C85.2715 71.6906 85.0806 71.4482 84.8195 71.2371C84.5654 71.0219 84.2353 70.86 83.8291 70.7511C83.2858 70.6056 82.7967 70.598 82.3617 70.7285C81.9282 70.8535 81.6607 71.1054 81.5593 71.4841C81.4784 71.7859 81.5307 72.0735 81.7163 72.3467C81.9019 72.62 82.2714 72.8984 82.8249 73.182L84.9899 74.2562C86.1516 74.8381 86.9593 75.4898 87.413 76.2114C87.8668 76.9329 87.9716 77.7492 87.7274 78.6603C87.5054 79.489 87.0663 80.1507 86.4102 80.6455C85.7596 81.1418 84.9647 81.4523 84.0254 81.5771C83.093 81.6978 82.078 81.6111 80.9804 81.317C79.3065 80.8685 78.0662 80.1627 77.2596 79.1995C76.46 78.2323 76.1368 77.1222 76.2902 75.8692L79.7881 76.6123C79.7556 77.1507 79.9037 77.608 80.2322 77.9843C80.5623 78.3551 81.0401 78.6243 81.6658 78.7919C82.2805 78.9566 82.806 78.971 83.2425 78.835C83.6859 78.695 83.961 78.4363 84.068 78.0591C84.1478 77.7393 84.0832 77.4426 83.8742 77.169C83.6666 76.8898 83.3031 76.6219 82.7837 76.365L80.7108 75.342C79.5422 74.7641 78.7376 74.0897 78.2971 73.3188C77.8621 72.5493 77.7711 71.6926 78.024 70.7486C78.2417 69.9363 78.6487 69.2954 79.2451 68.8258C79.847 68.3577 80.5913 68.0718 81.4778 67.9682C82.3699 67.8661 83.3565 67.9598 84.4377 68.2495C86.0348 68.6775 87.2011 69.3518 87.9368 70.2724C88.6779 71.1945 88.9694 72.2579 88.8113 73.4626Z" fill="white"/>
</svg>
