<svg width="418" height="418" viewBox="0 0 418 418" fill="none" xmlns="http://www.w3.org/2000/svg">
<path d="M73.5193 73.5193C-1.17308 148.212 -1.17308 269.312 73.5193 344.004C89.1102 359.595 106.723 371.932 125.514 381.014C130.511 383.429 135.592 385.615 140.741 387.57C208.972 413.481 289.049 398.959 344.004 344.004C347.941 340.067 351.671 336.001 355.193 331.82C361.649 324.155 367.409 316.102 372.47 307.745C417.031 234.177 407.542 137.057 344.004 73.5193C305.42 34.9354 254.453 16.2828 203.896 17.5615C199.422 17.6747 194.952 17.9439 190.494 18.3691C173.574 19.983 156.828 23.8446 140.741 29.9538C125.345 35.8002 110.553 43.7051 96.7883 53.6684C88.6428 59.5645 80.8571 66.1814 73.5193 73.5193Z" fill="#FF5454" stroke="#FF5454" stroke-width="35"/>
<path d="M290.256 228.032L208.852 308.655L127.447 228.032C122.078 222.807 117.849 216.527 115.026 209.588C112.202 202.648 110.847 195.199 111.044 187.709C111.241 180.22 112.987 172.852 116.172 166.071C119.356 159.289 123.91 153.241 129.547 148.306C135.184 143.371 141.782 139.656 148.925 137.396C156.068 135.137 163.602 134.38 171.052 135.175C178.501 135.97 185.706 138.298 192.211 142.014C198.717 145.73 204.383 150.752 208.852 156.765C213.34 150.796 219.013 145.817 225.514 142.141C232.015 138.465 239.205 136.17 246.634 135.4C254.062 134.63 261.57 135.402 268.687 137.667C275.804 139.932 282.377 143.642 287.994 148.564C293.611 153.486 298.152 159.515 301.332 166.272C304.512 173.03 306.263 180.371 306.475 187.837C306.688 195.303 305.357 202.732 302.566 209.659C299.775 216.587 295.585 222.864 290.256 228.097" fill="white"/>
<path d="M290.256 228.032L208.852 308.655L127.447 228.032C122.078 222.807 117.849 216.527 115.026 209.588C112.202 202.648 110.847 195.199 111.044 187.709C111.241 180.22 112.987 172.852 116.172 166.071C119.356 159.289 123.91 153.241 129.547 148.306C135.184 143.371 141.782 139.656 148.925 137.396C156.068 135.137 163.602 134.38 171.052 135.175C178.501 135.97 185.706 138.298 192.211 142.014C198.717 145.73 204.383 150.752 208.852 156.765C213.34 150.796 219.013 145.817 225.514 142.141C232.015 138.465 239.205 136.17 246.634 135.4C254.062 134.63 261.57 135.402 268.687 137.667C275.804 139.932 282.377 143.642 287.994 148.564C293.611 153.486 298.152 159.515 301.332 166.272C304.512 173.03 306.263 180.371 306.475 187.837C306.688 195.303 305.357 202.732 302.566 209.659C299.775 216.587 295.585 222.864 290.256 228.097" stroke="#1E1E1E" stroke-width="30" stroke-linecap="round" stroke-linejoin="round"/>
</svg>
