<svg width="124" height="124" viewBox="0 0 124 124" fill="none" xmlns="http://www.w3.org/2000/svg">
<rect width="123.971" height="123.971" rx="61.9854" fill="#4B94CC"/>
<path d="M44.6522 83.7062L39.9935 66.3195L43.451 65.393L44.0201 67.517L44.1766 67.4751C44.239 67.0936 44.3687 66.6883 44.5654 66.2591C44.7662 65.823 45.071 65.4237 45.4797 65.0612C45.8925 64.6918 46.4529 64.4122 47.1609 64.2225C48.0829 63.9755 48.9982 63.989 49.907 64.2632C50.8143 64.5318 51.6305 65.0866 52.3559 65.9275C53.0797 66.763 53.6357 67.9051 54.024 69.354C54.4019 70.7645 54.4933 72.0165 54.298 73.1099C54.1068 74.1965 53.6885 75.0938 53.0429 75.8021C52.4015 76.5034 51.6005 76.9827 50.6401 77.24C49.9595 77.4224 49.3504 77.465 48.8126 77.3679C48.2803 77.2694 47.8177 77.0904 47.4246 76.831C47.0301 76.5662 46.7063 76.2794 46.453 75.9708L46.346 75.9995L48.1592 82.7665L44.6522 83.7062ZM45.1204 71.7221C45.3219 72.474 45.6019 73.1019 45.9604 73.6058C46.319 74.1097 46.7378 74.4651 47.2167 74.6721C47.6942 74.8735 48.2156 74.8985 48.7809 74.7471C49.3517 74.5941 49.7927 74.3083 50.1041 73.8896C50.4139 73.4654 50.5954 72.9462 50.6485 72.332C50.7055 71.7108 50.6356 71.0325 50.4385 70.2971C50.2429 69.5672 49.9693 68.9523 49.6177 68.4524C49.2661 67.9525 48.8509 67.599 48.3719 67.3921C47.8929 67.1851 47.3653 67.1589 46.789 67.3133C46.2183 67.4662 45.7757 67.7466 45.4615 68.1543C45.1527 68.5606 44.9683 69.0688 44.9083 69.679C44.8482 70.2892 44.919 70.9702 45.1204 71.7221ZM58.0516 75.0335L54.6635 62.3887L58.0634 61.4777L58.6546 63.6839L58.7863 63.6486C58.8065 62.8021 59.0346 62.1057 59.4706 61.5594C59.9051 61.0077 60.4763 60.637 61.1843 60.4473C61.3599 60.4003 61.5522 60.3605 61.7612 60.328C61.9701 60.2956 62.1566 60.278 62.3205 60.2752L63.1543 63.387C62.9765 63.3818 62.7369 63.3989 62.4358 63.4384C62.1346 63.4779 61.8633 63.53 61.6218 63.5947C61.1059 63.733 60.675 63.969 60.3292 64.3028C59.9874 64.6297 59.7514 65.0224 59.6213 65.4807C59.4967 65.9377 59.5035 66.4241 59.6417 66.94L61.5586 74.0938L58.0516 75.0335ZM72.7281 71.3657C71.4494 71.7083 70.2707 71.733 69.1921 71.4396C68.1175 71.1393 67.1969 70.5684 66.4303 69.7268C65.6621 68.8797 65.1045 67.8085 64.7575 66.5133C64.4075 65.2071 64.354 63.9979 64.5972 62.8857C64.8389 61.768 65.3507 60.8133 66.1326 60.0214C66.9185 59.2226 67.9509 58.6519 69.2296 58.3092C70.5084 57.9666 71.6851 57.9454 72.7596 58.2457C73.8382 58.539 74.7616 59.1093 75.5297 59.9564C76.2964 60.798 76.8547 61.8719 77.2047 63.1781C77.5518 64.4733 77.6045 65.6797 77.3628 66.7974C77.1196 67.9096 76.6051 68.8651 75.8191 69.6639C75.0372 70.4558 74.0069 71.023 72.7281 71.3657ZM72.0167 68.6446C72.5984 68.4887 73.04 68.1939 73.3414 67.7602C73.6414 67.321 73.8129 66.7868 73.8561 66.1576C73.9048 65.527 73.8306 64.8439 73.6335 64.1085C73.4365 63.3731 73.1592 62.7444 72.8017 62.2226C72.4497 61.6993 72.0341 61.3224 71.5547 61.092C71.0753 60.8617 70.5448 60.8244 69.963 60.9803C69.3758 61.1377 68.9267 61.4374 68.6158 61.8795C68.3103 62.3202 68.1333 62.8559 68.0846 63.4865C68.0414 64.1157 68.1184 64.7981 68.3154 65.5335C68.5125 66.2689 68.787 66.8983 69.139 67.4216C69.4965 67.9434 69.9176 68.3188 70.4025 68.5477C70.8914 68.7697 71.4294 68.802 72.0167 68.6446ZM84.5777 54.3732L85.2835 57.0075L77.4793 59.0987L76.7734 56.4643L84.5777 54.3732ZM81.948 68.6305L78.315 55.0719C78.0694 54.1554 78.0441 53.3474 78.2391 52.6481C78.4395 51.9474 78.8121 51.3623 79.3569 50.8928C79.9017 50.4233 80.572 50.0819 81.3678 49.8687C81.9056 49.7246 82.4078 49.6341 82.8744 49.5973C83.3465 49.559 83.7012 49.5434 83.9383 49.5505L84.0186 52.3525C83.8696 52.3453 83.6884 52.3497 83.4751 52.3657C83.2672 52.3803 83.059 52.4155 82.8504 52.4713C82.3345 52.6096 82.0074 52.8266 81.869 53.1225C81.7292 53.4129 81.7167 53.7722 81.8314 54.2003L85.4467 67.693L81.948 68.6305ZM90.1083 66.444L86.7201 53.7991L90.2271 52.8594L93.6153 65.5043L90.1083 66.444ZM88.0451 51.6971C87.5237 51.8368 87.0301 51.7838 86.5642 51.538C86.1024 51.2853 85.8061 50.9147 85.6752 50.4262C85.5458 49.9433 85.6186 49.4797 85.8937 49.0354C86.1727 48.5841 86.573 48.2887 87.0944 48.1489C87.6157 48.0092 88.1073 48.0658 88.5692 48.3185C89.035 48.5642 89.3326 48.9286 89.462 49.4116C89.5929 49.9 89.5188 50.3699 89.2397 50.8211C88.9647 51.2654 88.5665 51.5574 88.0451 51.6971ZM95.4139 46.9521L99.9315 63.8119L96.4245 64.7515L91.907 47.8917L95.4139 46.9521ZM108.57 61.762C107.269 62.1105 106.079 62.1471 104.999 61.8717C103.923 61.5893 103.003 61.0301 102.238 60.1939C101.471 59.3523 100.909 58.2647 100.552 56.9311C100.203 55.6304 100.15 54.4212 100.391 53.3035C100.633 52.1858 101.139 51.2298 101.908 50.4354C102.683 49.6395 103.691 49.0754 104.931 48.743C105.765 48.5195 106.578 48.4459 107.369 48.5222C108.164 48.5915 108.902 48.8203 109.582 49.2085C110.268 49.5953 110.87 50.1516 111.388 50.8775C111.905 51.5979 112.307 52.4959 112.595 53.5716L112.854 54.5348L102.176 57.3958L101.594 55.2224L108.97 53.246C108.835 52.7411 108.605 52.3232 108.281 51.9924C107.957 51.6615 107.571 51.4386 107.123 51.3234C106.678 51.2014 106.201 51.2087 105.69 51.3455C105.158 51.4881 104.719 51.7381 104.374 52.0953C104.032 52.4456 103.801 52.8575 103.681 53.3308C103.559 53.7987 103.563 54.2831 103.691 54.784L104.245 56.8503C104.412 57.476 104.672 57.9857 105.025 58.3795C105.383 58.7718 105.809 59.034 106.304 59.1663C106.798 59.2986 107.339 59.286 107.926 59.1287C108.315 59.0243 108.657 58.8738 108.952 58.6773C109.246 58.4807 109.479 58.2418 109.651 57.9605C109.823 57.6792 109.926 57.3633 109.962 57.0126L113.263 56.3575C113.307 57.181 113.152 57.9519 112.797 58.6705C112.447 59.382 111.914 60.007 111.199 60.5456C110.489 61.0771 109.612 61.4826 108.57 61.762Z" fill="white"/>
</svg>
