<svg width="124" height="124" viewBox="0 0 124 124" fill="none" xmlns="http://www.w3.org/2000/svg">
<rect width="123.971" height="123.971" rx="61.9854" fill="#777777"/>
<path d="M27.2805 69.0373L24.0169 68.3746C24.0356 68.0855 23.9837 67.8069 23.8614 67.5388C23.7406 67.2653 23.5497 67.0229 23.2886 66.8118C23.0345 66.5967 22.7044 66.4347 22.2982 66.3259C21.7549 66.1803 21.2658 66.1727 20.8308 66.3032C20.3973 66.4283 20.1298 66.6801 20.0284 67.0588C19.9475 67.3606 19.9998 67.6482 20.1854 67.9215C20.371 68.1947 20.7406 68.4731 21.294 68.7567L23.459 69.8309C24.6207 70.4128 25.4285 71.0645 25.8822 71.7861C26.3359 72.5076 26.4407 73.3239 26.1965 74.235C25.9745 75.0637 25.5354 75.7255 24.8793 76.2202C24.2287 76.7165 23.4338 77.027 22.4945 77.1518C21.5621 77.2725 20.5471 77.1859 19.4495 76.8917C17.7756 76.4432 16.5353 75.7374 15.7287 74.7742C14.9291 73.807 14.6059 72.6969 14.7593 71.4439L18.2572 72.1871C18.2247 72.7254 18.3728 73.1827 18.7013 73.559C19.0314 73.9298 19.5093 74.199 20.1349 74.3666C20.7496 74.5313 21.2751 74.5457 21.7116 74.4097C22.155 74.2697 22.4301 74.0111 22.5371 73.6339C22.6169 73.3141 22.5523 73.0173 22.3433 72.7437C22.1357 72.4646 21.7722 72.1966 21.2528 71.9398L19.1799 70.9167C18.0113 70.3388 17.2067 69.6644 16.7662 68.8935C16.3312 68.124 16.2402 67.2673 16.4932 66.3233C16.7108 65.511 17.1178 64.8701 17.7142 64.4005C18.3161 63.9324 19.0604 63.6465 19.9469 63.5429C20.839 63.4408 21.8256 63.5346 22.9068 63.8243C24.5039 64.2522 25.6702 64.9265 26.4059 65.8471C27.147 66.7692 27.4385 67.8326 27.2805 69.0373ZM33.0513 80.5364C31.7506 80.1878 30.7016 79.6244 29.9043 78.8461C29.114 78.0637 28.5965 77.1192 28.3518 76.0125C28.1087 74.9003 28.1658 73.6774 28.5231 72.3437C28.8717 71.043 29.43 69.9691 30.1981 69.122C30.9663 68.2749 31.8821 67.6998 32.9457 67.3965C34.0148 67.0948 35.1695 67.11 36.4099 67.4424C37.2441 67.6659 37.9846 68.0085 38.6315 68.47C39.2854 68.9276 39.8099 69.4946 40.2051 70.1711C40.6058 70.849 40.849 71.6318 40.9347 72.5194C41.0218 73.4016 40.9213 74.3805 40.633 75.4562L40.375 76.4194L29.6976 73.5584L30.28 71.3851L37.6561 73.3615C37.7914 72.8566 37.8015 72.3799 37.6864 71.9314C37.5713 71.4829 37.3483 71.0967 37.0175 70.7728C36.6936 70.4448 36.2764 70.2125 35.766 70.0757C35.2337 69.9331 34.7286 69.9301 34.2508 70.0668C33.78 70.1994 33.3742 70.4407 33.0334 70.7905C32.694 71.1349 32.4547 71.5561 32.3154 72.054L31.7617 74.1203C31.5941 74.746 31.5645 75.3175 31.6729 75.8347C31.7869 76.3535 32.0248 76.7937 32.3867 77.1554C32.7486 77.5171 33.2232 77.7766 33.8104 77.9339C34.2001 78.0383 34.5715 78.079 34.9247 78.056C35.278 78.033 35.5992 77.9426 35.8886 77.7849C36.1779 77.6271 36.4256 77.4053 36.6316 77.1193L39.8178 78.2024C39.4443 78.9376 38.9244 79.5277 38.2582 79.9727C37.5988 80.4137 36.8251 80.6887 35.9371 80.7978C35.056 80.9029 34.0941 80.8158 33.0513 80.5364ZM51.3239 71.6151L50.618 74.2494L43.0031 72.209L43.709 69.5747L51.3239 71.6151ZM46.2495 67.0084L49.7565 67.9481L46.5977 79.7368C46.5109 80.0606 46.4927 80.3263 46.543 80.5338C46.5947 80.7359 46.6988 80.8962 46.8553 81.0146C47.0173 81.1345 47.2163 81.226 47.4523 81.2892C47.6169 81.3334 47.7853 81.3638 47.9573 81.3804C48.1307 81.3916 48.2636 81.4008 48.3558 81.4078L48.2081 84.1653C48.0178 84.1731 47.7539 84.17 47.4165 84.1561C47.0776 84.1476 46.6781 84.0906 46.2182 83.985C45.3642 83.7915 44.6534 83.4804 44.0859 83.0519C43.5239 82.6248 43.14 82.0926 42.9344 81.4551C42.7287 80.8177 42.7397 80.0853 42.9672 79.2581L46.2495 67.0084ZM60.3341 74.0294L59.6283 76.6637L52.0134 74.6233L52.7192 71.9889L60.3341 74.0294ZM55.2598 69.4227L58.7668 70.3624L55.608 82.1511C55.5212 82.4749 55.503 82.7406 55.5532 82.9481C55.605 83.1502 55.7091 83.3105 55.8656 83.4289C56.0276 83.5488 56.2266 83.6403 56.4626 83.7035C56.6272 83.7477 56.7955 83.7781 56.9675 83.7947C57.141 83.8059 57.2738 83.815 57.3661 83.8221L57.2184 86.5796C57.0281 86.5874 56.7642 86.5843 56.4267 86.5704C56.0878 86.5619 55.6884 86.5049 55.2285 86.3993C54.3745 86.2058 53.6637 85.8947 53.0962 85.4662C52.5342 85.0391 52.1503 84.5069 51.9447 83.8694C51.739 83.232 51.7499 82.4996 51.9775 81.6724L55.2598 69.4227ZM59.2304 87.2863L62.6186 74.6415L66.1256 75.5812L62.7374 88.226L59.2304 87.2863ZM64.8171 73.4835C64.2957 73.3438 63.8947 73.0511 63.6142 72.6053C63.3406 72.1556 63.2692 71.6865 63.4001 71.198C63.5295 70.715 63.8244 70.3499 64.2848 70.1027C64.7521 69.8515 65.2464 69.7957 65.7678 69.9354C66.2892 70.0751 66.6867 70.3698 66.9603 70.8196C67.2408 71.2654 67.3164 71.7297 67.187 72.2127C67.0561 72.7011 66.757 73.071 66.2897 73.3222C65.8293 73.5695 65.3385 73.6232 64.8171 73.4835ZM71.0124 82.6081L69.0537 89.9184L65.5467 88.9788L68.9349 76.3339L72.2772 77.2295L71.6794 79.4604L71.8276 79.5001C72.3045 78.8397 72.9297 78.3837 73.703 78.1321C74.4777 77.875 75.3343 77.8722 76.2728 78.1236C77.1509 78.3589 77.8651 78.7562 78.4152 79.3153C78.9654 79.8745 79.326 80.5594 79.497 81.3699C79.6696 82.1749 79.6242 83.0686 79.361 84.051L77.2037 92.1022L73.6967 91.1625L75.6864 83.737C75.8992 82.9646 75.8634 82.308 75.5789 81.7671C75.2959 81.2206 74.8032 80.8533 74.1007 80.6651C73.6287 80.5386 73.1844 80.5284 72.7678 80.6344C72.3566 80.7419 71.9973 80.9632 71.6898 81.2985C71.3893 81.6297 71.1635 82.0663 71.0124 82.6081ZM84.3233 99.3745C83.1872 99.0701 82.255 98.6527 81.5265 98.1222C80.8021 97.5987 80.2725 97.0068 79.9377 96.3465C79.6028 95.6862 79.453 95.0049 79.4883 94.3026L82.8487 94.7354C82.8799 95.0143 82.973 95.2922 83.1283 95.5691C83.2835 95.846 83.5191 96.0973 83.835 96.3232C84.155 96.556 84.5702 96.7407 85.0806 96.8775C85.8434 97.0819 86.5218 97.0637 87.1158 96.8228C87.7137 96.589 88.1289 96.0384 88.3612 95.1713L88.9811 92.858L88.8329 92.8183C88.5851 93.1284 88.2656 93.3987 87.8745 93.6291C87.4833 93.8596 87.0198 94.0089 86.4839 94.0771C85.948 94.1453 85.3452 94.0896 84.6757 93.9102C83.7262 93.6558 82.9206 93.2047 82.259 92.5568C81.6042 91.9049 81.1684 91.0617 80.9515 90.0271C80.7416 88.9885 80.8241 87.7695 81.1991 86.37C81.5829 84.9376 82.1368 83.8036 82.8606 82.9682C83.5845 82.1328 84.3973 81.58 85.2991 81.3098C86.2063 81.0412 87.1237 81.0311 88.0512 81.2797C88.7592 81.4694 89.3196 81.7489 89.7323 82.1183C90.1466 82.4823 90.4513 82.8816 90.6466 83.3162C90.8489 83.7469 90.984 84.1537 91.052 84.5366L91.1837 84.5719L91.7528 82.448L95.2351 83.381L91.8138 96.1494C91.5256 97.2251 91.021 98.0545 90.3 98.6378C89.579 99.2211 88.7035 99.5688 87.6734 99.681C86.6474 99.8002 85.5307 99.6981 84.3233 99.3745ZM86.4929 91.5737C87.0582 91.7252 87.5732 91.7131 88.0378 91.5377C88.5095 91.3581 88.9201 91.0329 89.2699 90.5619C89.6265 90.0869 89.9041 89.479 90.1027 88.738C90.3012 87.9971 90.369 87.3271 90.306 86.7279C90.2445 86.1232 90.0566 85.6169 89.7424 85.2092C89.4281 84.8015 88.9883 84.5219 88.423 84.3704C87.8468 84.216 87.3191 84.2423 86.8402 84.4492C86.3627 84.6507 85.9489 84.9986 85.5987 85.493C85.2486 85.9874 84.9772 86.5941 84.7846 87.3131C84.589 88.043 84.5214 88.7014 84.5818 89.2881C84.6492 89.8709 84.8388 90.3599 85.1505 90.7552C85.4692 91.1464 85.9167 91.4193 86.4929 91.5737ZM107.581 90.5536L104.317 89.8909C104.336 89.6018 104.284 89.3232 104.162 89.0552C104.041 88.7816 103.85 88.5393 103.589 88.3282C103.335 88.113 103.005 87.951 102.598 87.8422C102.055 87.6966 101.566 87.6891 101.131 87.8196C100.697 87.9446 100.43 88.1965 100.328 88.5752C100.248 88.877 100.3 89.1646 100.486 89.4378C100.671 89.7111 101.041 89.9895 101.594 90.2731L103.759 91.3473C104.921 91.9292 105.729 92.5809 106.182 93.3024C106.636 94.024 106.741 94.8403 106.497 95.7513C106.275 96.5801 105.836 97.2418 105.179 97.7366C104.529 98.2328 103.734 98.5434 102.795 98.6681C101.862 98.7889 100.847 98.7022 99.7496 98.4081C98.0757 97.9596 96.8354 97.2537 96.0288 96.2906C95.2292 95.3234 94.9061 94.2133 95.0595 92.9603L98.5573 93.7034C98.5248 94.2418 98.6729 94.6991 99.0015 95.0753C99.3315 95.4461 99.8094 95.7153 100.435 95.883C101.05 96.0477 101.575 96.062 102.012 95.926C102.455 95.786 102.73 95.5274 102.837 95.1502C102.917 94.8304 102.852 94.5337 102.643 94.26C102.436 93.9809 102.072 93.7129 101.553 93.4561L99.4801 92.433C98.3114 91.8552 97.5068 91.1808 97.0664 90.4098C96.6314 89.6404 96.5403 88.7836 96.7933 87.8397C97.0109 87.0274 97.418 86.3865 98.0144 85.9169C98.6163 85.4488 99.3605 85.1629 100.247 85.0593C101.139 84.9571 102.126 85.0509 103.207 85.3406C104.804 85.7685 105.97 86.4428 106.706 87.3635C107.447 88.2856 107.739 89.349 107.581 90.5536Z" fill="white"/>
</svg>
